<?xml version="1.0" encoding="UTF-8" standalone="no"?>
<svg xmlns:dc="http://purl.org/dc/elements/1.1/" xmlns:cc="http://creativecommons.org/ns#" xmlns:rdf="http://www.w3.org/1999/02/22-rdf-syntax-ns#" xmlns:svg="http://www.w3.org/2000/svg" xmlns="http://www.w3.org/2000/svg" xmlns:xlink="http://www.w3.org/1999/xlink" width="300" height="300" id="svg2" version="1.1"><title id="title3310">GNU Guix Logotype</title><defs id="defs4"><linearGradient id="linearGradient4696-5"><stop style="stop-color:#ffb638;stop-opacity:1;" offset="0" id="stop4698-6" /><stop style="stop-color:#f0ae26;stop-opacity:1;" offset="1" id="stop4700-2" /></linearGradient><linearGradient id="linearGradient4702-3"><stop style="stop-color:#ff0000;stop-opacity:0.58431375;" offset="0" id="stop4704-1" /><stop style="stop-color:#ffcc00;stop-opacity:1;" offset="1" id="stop4706-8" /></linearGradient><color-profile id="color-profile3838" xlink:href="/usr/share/color/icc/ghostscript/ps_cmyk.icc" name="Artifex-PS-CMYK-Profile" /><linearGradient xlink:href="#linearGradient4702-3" id="linearGradient3926" gradientUnits="userSpaceOnUse" gradientTransform="matrix(-1.7075774,0,0,1.7075774,322.92812,685.87629)" x1="142.96875" y1="63.65625" x2="177.04297" y2="69.791016" /><linearGradient xlink:href="#linearGradient4696-5" id="linearGradient3929" gradientUnits="userSpaceOnUse" gradientTransform="matrix(-0.95618438,0,0,0.95618438,245.51343,-52.946815)" x1="108.08774" y1="1025.709" x2="80.655251" y2="1043.709" /><linearGradient xlink:href="#linearGradient4702-3" id="linearGradient3932" gradientUnits="userSpaceOnUse" gradientTransform="matrix(1.7075774,0,0,1.7075774,-23.925257,-769.59927)" x1="113.5146" y1="1004.8033" x2="78.000107" y2="922.07178" /><linearGradient xlink:href="#linearGradient4702-3" id="linearGradient3936" gradientUnits="userSpaceOnUse" gradientTransform="matrix(1.7075774,0,0,1.7075774,-23.870036,685.87684)" x1="142.96875" y1="63.65625" x2="176.60477" y2="70.667412" /></defs><metadata id="metadata7"><rdf:RDF><cc:Work rdf:about=""><dc:format>image/svg+xml</dc:format><dc:type rdf:resource="http://purl.org/dc/dcmitype/StillImage" /><dc:title>GNU Guix Logotype</dc:title><dc:date>2016-12-16</dc:date><dc:creator><cc:Agent><dc:title>Luis Felipe López Acevedo</dc:title></cc:Agent></dc:creator><dc:rights><cc:Agent><dc:title>Luis Felipe López Acevedo</dc:title></cc:Agent></dc:rights><cc:license rdf:resource="http://creativecommons.org/licenses/by-sa/3.0/" /><dc:description /></cc:Work><cc:License rdf:about="http://creativecommons.org/licenses/by-sa/3.0/"><cc:permits rdf:resource="http://creativecommons.org/ns#Reproduction" /><cc:permits rdf:resource="http://creativecommons.org/ns#Distribution" /><cc:requires rdf:resource="http://creativecommons.org/ns#Notice" /><cc:requires rdf:resource="http://creativecommons.org/ns#Attribution" /><cc:permits rdf:resource="http://creativecommons.org/ns#DerivativeWorks" /><cc:requires rdf:resource="http://creativecommons.org/ns#ShareAlike" /></cc:License></rdf:RDF></metadata><g id="layer1" transform="translate(0,-752.36218)"><g id="g3122" transform="matrix(1.1479989,0,0,1.1479989,-22.67108,-133.14588)"><path d="m 114.29864,1016.2686 c -3.15017,1.5313 -6.4206,2.6798 -9.81131,3.4454 -3.39079,0.7657 -6.89092,1.1485 -10.500399,1.1485 -8.159708,0 -14.62401,-2.2751 -19.392927,-6.8253 -4.768937,-4.572 -7.153401,-10.7629 -7.153397,-18.57256 -4e-6,-7.89714 2.428211,-14.10987 7.284652,-18.63821 4.85642,-4.52825 11.506666,-6.79239 19.95076,-6.79244 3.259466,5e-5 6.376771,0.30631 9.351921,0.91878 2.99694,0.61258 5.81892,1.52042 8.46595,2.72354 l 0,10.13945 c -2.73453,-1.55314 -5.45807,-2.71256 -8.17063,-3.47825 -2.69076,-0.76562 -5.392426,-1.14844 -8.104994,-1.14849 -5.031469,5e-5 -8.914426,1.41104 -11.648882,4.23298 -2.712621,2.80014 -4.068921,6.81435 -4.068905,12.04264 -1.6e-5,5.18456 1.312533,9.18786 3.93765,12.00986 2.625077,2.822 6.354903,4.233 11.189489,4.233 1.312517,0 2.526625,-0.077 3.642326,-0.2297 1.137506,-0.175 2.154736,-0.4376 3.051676,-0.7876 l 0,-9.516 -7.711228,0 0,-8.46591 19.688248,0 0,23.56031" style="font-style:normal;font-weight:bold;font-size:67.20256042px;line-height:125%;font-family:Sans;-inkscape-font-specification:'Sans Bold';letter-spacing:0px;word-spacing:0px;fill:#333333;fill-opacity:1;stroke:none" id="path3240" /><path d="m 124.47091,1005.6041 0,-22.44461 11.81295,0 0,3.67514 c -2e-5,1.99073 -0.011,4.49551 -0.0328,7.51435 -0.0219,2.99701 -0.0328,4.99865 -0.0328,6.00492 -2e-5,2.9532 0.0765,5.0861 0.22969,6.3987 0.15311,1.2907 0.41563,2.2313 0.78753,2.822 0.48125,0.7656 1.10471,1.3563 1.87039,1.7719 0.78751,0.4156 1.68441,0.6235 2.69072,0.6235 2.45007,0 4.37514,-0.9407 5.77522,-2.822 1.40003,-1.8813 2.10005,-4.4955 2.10008,-7.8425 l 0,-18.14601 11.74732,0 0,36.75141 -11.74732,0 0,-5.3158 c -1.77197,2.1438 -3.65329,3.7298 -5.64396,4.758 -1.96885,1.0062 -4.14549,1.5094 -6.52994,1.5094 -4.24392,0 -7.48154,-1.3016 -9.71287,-3.9048 -2.20946,-2.6033 -3.31419,-6.3878 -3.31419,-11.3536" style="font-style:normal;font-weight:bold;font-size:67.20256042px;line-height:125%;font-family:Sans;-inkscape-font-specification:'Sans Bold';letter-spacing:0px;word-spacing:0px;fill:#333333;fill-opacity:1;stroke:none" id="path3242" /><path d="m 172.77274,983.15949 11.74732,0 0,36.75141 -11.74732,0 0,-36.75141 m 0,-14.3068 11.74732,0 0,9.58162 -11.74732,0 0,-9.58162" style="font-style:normal;font-weight:bold;font-size:67.20256042px;line-height:125%;font-family:Sans;-inkscape-font-specification:'Sans Bold';letter-spacing:0px;word-spacing:0px;fill:#333333;fill-opacity:1;stroke:none" id="path3244" /><path d="m 205.15991,1001.1086 -13.25675,-17.94911 12.43641,0 7.51435,10.89416 7.61279,-10.89416 12.43641,0 -13.25676,17.88351 13.91303,18.8679 -12.43641,0 -8.26906,-11.6161 -8.17063,11.6161 -12.43641,0 13.91303,-18.8023" style="font-style:normal;font-weight:bold;font-size:67.20256042px;line-height:125%;font-family:Sans;-inkscape-font-specification:'Sans Bold';letter-spacing:0px;word-spacing:0px;fill:#333333;fill-opacity:1;stroke:none" id="path3246" /></g><path id="path3143" d="m 289.68406,766.98653 c -3.07959,5.62821 -6.206,10.21031 -9.3917,13.82072 -3.07953,3.50436 -6.47545,6.30742 -10.19207,8.43116 -3.61053,2.01769 -7.70704,3.47286 -12.27322,4.32228 -4.46003,0.74334 -9.58108,1.12078 -15.42157,1.12057 -4.30828,0 -8.18013,-0.22065 -11.57952,-0.64028 -0.0134,0 -0.0396,0 -0.0535,0 -0.43097,-0.0313 -1.32107,-0.17603 -2.24118,-0.32019 -0.96915,-0.15174 -1.9598,-0.29796 -3.5219,-0.58697 -28.63343,-5.29789 -38.12974,14.57993 -40.18143,20.06408 -0.32114,0.85833 -0.48024,1.3873 -0.48024,1.3873 l -34.79191,97.01176 -21.3447,36.28619 42.63606,0 c 17.51105,-38.98904 34.34619,-120.39699 52.34794,-127.58809 3.90183,0.54573 8.73829,0.80031 14.56776,0.80031 7.64575,0 14.49141,-0.9166 20.5443,-2.82809 6.05284,-1.91144 11.49728,-4.8762 16.38208,-8.91149 4.88476,-4.14138 9.30464,-9.42355 13.23372,-15.7951 4.03522,-6.37137 7.86221,-14.02547 11.47276,-22.94554 l -9.71174,-3.62862 z" style="font-style:normal;font-weight:bold;font-size:144px;line-height:125%;font-family:Sans;-inkscape-font-specification:'Sans Bold';letter-spacing:0px;word-spacing:0px;fill:#ffcc00;fill-opacity:1;stroke:none" /><path id="path3145" d="m 289.68296,766.99051 c -3.07958,5.62822 -6.20577,10.20399 -9.39148,13.8144 -3.0795,3.50437 -6.47677,6.30875 -10.19338,8.43249 -0.89415,0.49969 -1.81598,0.95885 -2.76951,1.38888 -0.009,0.003 -0.0156,0.0125 -0.0249,0.0165 -1.20021,0.84407 -2.74398,1.56866 -4.83629,2.06678 -24.13189,5.74578 -40.56891,27.25144 -42.11282,29.33183 0.70003,-0.57553 1.40469,-1.04542 2.10812,-1.4054 0.10574,-0.056 0.20829,-0.10676 0.31415,-0.15708 0.0169,-0.008 0.0327,-0.017 0.0496,-0.0248 0.12259,-0.0572 0.24931,-0.10802 0.37202,-0.15707 3.90183,0.54573 8.73725,0.80191 14.56672,0.80191 7.64575,0 14.49096,-0.92413 20.54385,-2.83563 6.05285,-1.91143 11.49241,-4.86844 16.37723,-8.90372 4.88476,-4.14137 9.30661,-9.42696 13.2357,-15.7985 4.03522,-6.37139 7.86425,-14.02951 11.47478,-22.9496 l -9.71391,-3.62102 z" style="font-style:normal;font-weight:bold;font-size:144px;line-height:125%;font-family:Sans;-inkscape-font-specification:'Sans Bold';letter-spacing:0px;word-spacing:0px;fill:url(#linearGradient3936);fill-opacity:1;stroke:none" /><path id="path3147" d="m 9.3742401,766.98655 c 3.0795839,5.62821 6.2059799,10.21029 9.3916779,13.8207 3.079546,3.50436 6.475462,6.30742 10.192108,8.43116 3.610483,2.01769 7.707022,3.47286 12.2732,4.32228 4.460026,0.74356 9.581066,1.12078 15.421561,1.12057 4.308296,0 8.180141,-0.22065 11.579501,-0.64028 0.01355,0 0.03964,0 0.05347,0 0.430947,-0.0309 1.321059,-0.17602 2.241192,-0.32019 0.969145,-0.15174 1.959797,-0.29796 3.521873,-0.58697 28.633457,-5.29789 38.129777,14.57993 40.181457,20.06408 0.32112,0.85833 0.48024,1.3873 0.48024,1.3873 l 34.79188,97.01176 21.34472,36.28619 -42.63606,0 C 110.70002,908.89411 93.864891,827.48616 75.863137,820.29506 c -3.901831,0.54573 -8.738317,0.80031 -14.56778,0.80031 -7.645734,0 -14.491412,-0.9166 -20.544296,-2.82809 -6.052838,-1.91144 -11.497289,-4.8762 -16.382063,-8.91149 -4.884737,-4.14138 -9.304642,-9.42354 -13.233722,-15.7951 -4.0352218,-6.37131 -7.8622496,-14.02542 -11.47278779,-22.94554 l 9.71184719,-3.6286 z" style="font-style:normal;font-weight:bold;font-size:144px;line-height:125%;font-family:Sans;-inkscape-font-specification:'Sans Bold';letter-spacing:0px;word-spacing:0px;fill:#ffcc00;fill-opacity:1;stroke:none" /><path style="font-style:normal;font-weight:bold;font-size:144px;line-height:125%;font-family:Sans;-inkscape-font-specification:'Sans Bold';letter-spacing:0px;word-spacing:0px;fill:url(#linearGradient3932);fill-opacity:1;stroke:none" d="m 9.3725101,766.98515 c 3.0795839,5.6282 6.2059799,10.21029 9.3916779,13.82069 3.079546,3.50437 6.475462,6.30742 10.192099,8.43116 3.610492,2.01769 7.707031,3.47285 12.273209,4.32229 4.460025,0.74354 9.581065,1.12077 15.421571,1.12055 4.308286,0 8.180131,-0.22065 11.5795,-0.64026 0.01345,0 0.03964,0 0.05347,0 0.430947,-0.031 1.321058,-0.17604 2.241192,-0.3202 0.969145,-0.15174 1.959797,-0.29796 3.521874,-0.58697 28.633447,-5.29789 38.129767,14.57992 40.181447,20.06408 0.32112,0.85833 0.48024,1.3873 0.48024,1.3873 l 34.79189,97.01177 17.92957,36.28617 -39.22091,0 C 110.69831,908.8927 93.863165,827.48475 75.861417,820.29365 c -3.901832,0.54573 -8.738317,0.80031 -14.567781,0.80031 -7.645732,0 -14.491402,-0.9166 -20.544286,-2.82809 -6.052847,-1.91144 -11.49729,-4.87621 -16.382072,-8.91149 C 19.482541,805.213 15.062636,799.93084 11.133566,793.55929 7.0983345,787.18796 3.2713159,779.53387 -0.33923149,770.61375 l 9.71184719,-3.6286 z" id="path3149" /><path d="m 149.49336,911.58178 -21.26096,36.30137 42.61477,0" style="font-style:normal;font-weight:bold;font-size:144px;line-height:125%;font-family:Sans;-inkscape-font-specification:'Sans Bold';letter-spacing:0px;word-spacing:0px;fill:url(#linearGradient3929);fill-opacity:1;stroke:none" id="path3151" /><path id="path3154" d="m 9.377125,766.99051 -9.71389862,3.62102 c 1.12829124,2.78754 2.27708342,5.45457 3.44739952,7.99433 0.2340689,0.50794 0.4669749,1.0066 0.7027108,1.50461 9.149e-4,0.002 -9.161e-4,0.007 0,0.008 0.2346728,0.49571 0.4746562,0.9857 0.7109775,1.47155 0.078741,0.16194 0.1608037,0.31866 0.2397447,0.4795 0.3963661,0.8076 0.7894984,1.60923 1.1904692,2.3892 0.00184,0.003 0.00643,0.005 0.00827,0.008 0.2390134,0.46475 0.4786031,0.92568 0.7192455,1.38062 0.9705826,1.83509 1.9544406,3.59126 2.9513733,5.26617 0.2489378,0.41823 0.4934621,0.82357 0.7440391,1.2318 0.09712,0.15824 0.191988,0.31449 0.289352,0.47123 0.155063,0.24964 0.315537,0.49822 0.471223,0.74404 0.245568,0.39821 0.486386,0.79251 0.735782,1.18221 0.397354,0.62088 0.808231,1.22785 1.215263,1.82703 0.102792,0.15128 0.202482,0.3048 0.305887,0.45469 0.258286,0.3745 0.514997,0.74199 0.777111,1.1078 0.521606,0.72795 1.050604,1.43951 1.587291,2.13293 0.268347,0.34669 0.538088,0.68709 0.810182,1.02512 0.544204,0.67607 1.094304,1.33462 1.653432,1.97585 0.423916,0.48616 0.857224,0.96418 1.289674,1.43022 0.136623,0.1472 0.275891,0.29297 0.413357,0.43815 0.575307,0.60774 1.154258,1.19687 1.74437,1.76917 0.294342,0.28546 0.586578,0.56664 0.884581,0.84325 0.299451,0.27801 0.597986,0.5494 0.901117,0.81845 0.301658,0.26774 0.604093,0.52655 0.909385,0.78538 0.915904,0.75662 1.855264,1.47627 2.810831,2.15773 2.548188,1.81719 5.238327,3.36872 8.077,4.6544 0.354835,0.16072 0.706986,0.31877 1.066463,0.47123 0.721223,0.30596 1.450733,0.59529 2.190798,0.86805 0.368843,0.13594 0.734234,0.26086 1.107801,0.38855 0.373558,0.12769 0.754294,0.25256 1.132595,0.37202 0.3783,0.11947 0.756363,0.23551 1.140862,0.34722 0.769008,0.22344 1.554065,0.43566 2.347876,0.6283 0.396896,0.0963 0.795624,0.18413 1.198728,0.27282 0.403113,0.0887 0.805959,0.1752 1.215271,0.25628 0.41193,0.0816 0.821855,0.15748 1.240076,0.23148 0.831056,0.14704 1.673813,0.27981 2.529746,0.39682 1.283905,0.17555 2.595211,0.32103 3.935159,0.42989 0.893306,0.0727 1.801648,0.1303 2.719896,0.17362 0.918247,0.0433 1.851071,0.0683 2.794296,0.0826 0.471607,0.007 0.944084,0.008 1.421945,0.008 0.728686,0 1.443427,-2.4e-4 2.141193,-0.008 1.395532,-0.0161 2.728062,-0.0502 4.0013,-0.0992 0.633803,-0.0245 1.256271,-0.0499 1.860108,-0.0827 0.606381,-0.033 1.201053,-0.0742 1.77743,-0.11575 1.729134,-0.12472 3.323494,-0.28311 4.786678,-0.48775 0.122706,0.049 0.249423,0.0999 0.372019,0.15706 0.01694,0.007 0.03268,0.017 0.04963,0.0248 0.105869,0.0504 0.20836,0.10103 0.314156,0.15707 0.703836,0.3602 1.407672,0.82942 2.108121,1.40542 -1.540662,-2.07617 -17.978145,-23.58561 -42.112845,-29.33184 -2.092281,-0.49818 -3.636074,-1.22267 -4.836275,-2.06679 -0.0092,-0.003 -0.01584,-0.0124 -0.02481,-0.0165 -0.951374,-0.42905 -1.877229,-0.89049 -2.769502,-1.38888 -0.0018,-9.2e-4 -0.0064,9.1e-4 -0.0083,0 -0.230232,-0.13155 -0.458404,-0.26831 -0.686174,-0.40509 -0.0018,-9.2e-4 -0.0064,9.1e-4 -0.0083,0 -0.229785,-0.13805 -0.450623,-0.27826 -0.677908,-0.42162 -0.456436,-0.28793 -0.909449,-0.5834 -1.355805,-0.89285 -0.222284,-0.15405 -0.441586,-0.31182 -0.661371,-0.47124 -0.442657,-0.32104 -0.873667,-0.64922 -1.306207,-0.99205 -0.214806,-0.17015 -0.424264,-0.33703 -0.636578,-0.51257 -0.21388,-0.17683 -0.425206,-0.35505 -0.636569,-0.53736 -0.209823,-0.18093 -0.41269,-0.36755 -0.620032,-0.55391 -1.036697,-0.9317 -2.042786,-1.92495 -3.017515,-2.99269 -0.194937,-0.21355 -0.394488,-0.43409 -0.586963,-0.65311 -0.708359,-0.80279 -1.413751,-1.65484 -2.116389,-2.55455 -0.08744,-0.11204 -0.168924,-0.22544 -0.25628,-0.33895 -0.1973,-0.25631 -0.398371,-0.51306 -0.595239,-0.77711 -0.984316,-1.32033 -1.960932,-2.7407 -2.93482,-4.2576 -0.389553,-0.60676 -0.777696,-1.22964 -1.165665,-1.86838 -0.193985,-0.31936 -0.385104,-0.63984 -0.578705,-0.96724 -0.578959,-0.97912 -1.1604921,-1.99886 -1.7360999,-3.05058 z" style="font-style:normal;font-weight:bold;font-size:144px;line-height:125%;font-family:Sans;-inkscape-font-specification:'Sans Bold';letter-spacing:0px;word-spacing:0px;fill:url(#linearGradient3926);fill-opacity:1;stroke:none" /></g></svg> 
