<?xml version="1.0" encoding="UTF-8"?>
<svg width="512" height="512" version="1.1" viewBox="0 0 136.09448 136" xmlns="http://www.w3.org/2000/svg"><g transform="translate(0 -916.36)"><g transform="translate(870.83 1730.9)"><circle cx="-804.79" cy="-744.57" r="64" fill="#4c5263"/><g fill-rule="evenodd" shape-rendering="auto"><path d="m-827.79-812.57c-9.7428 31.983-24.374 62.225-40.667 91.333-0.21706 2.2418 4.9625 2.2582 6.755 2.9945 19.841 3.459 39.959 4.9795 60 6.8129 1.231-0.52345 5.167 1.6584 4.4054-0.87167-1.5758-20.306-3.1039-40.617-4.7742-60.916-7.8609-12.652-15.063-25.773-23.976-37.732-0.52472-0.59279-1.0127-1.2573-1.7434-1.6207zm2 9c6.1886 10.964 14.03 20.903 20 32 1.4331 18.579 2.5824 37.178 3.8912 55.765-19.398-1.7184-38.851-3.2741-58.07-6.4998-5.5776-0.63908 0.45668-5.6433 1.2685-8.4976 12.33-22.132 24.742-44.568 31.917-68.998 0.35145-1.251 0.68351-2.5075 0.99277-3.7696z" color="#000000" color-rendering="auto" fill="#4c5263" image-rendering="auto" solid-color="#000000" style="isolation:auto;mix-blend-mode:normal;text-decoration-color:#000000;text-decoration-line:none;text-decoration-style:solid;text-indent:0;text-transform:none;white-space:normal"/><path d="m-742.14-731.42c-9.3457 12.608-26.609 19.346-47.175 22.334-21.457 3.1176-46.338 2.1913-68.539 0.29492 1.0633 1.5884 2.2304 3.1284 3.4316 4.6152 21.372 1.6944 44.918 2.3869 65.728-0.63672 17.356-2.5218 33.04-7.6381 43.799-17.146 1.174-3.0571 2.1394-6.4433 2.7552-9.4612z" color="#000000" color-rendering="auto" fill="#fff" image-rendering="auto" solid-color="#000000" style="block-progression:tb;isolation:auto;mix-blend-mode:normal;text-decoration-color:#000000;text-decoration-line:none;text-decoration-style:solid;text-indent:0;text-transform:none;white-space:normal"/><path d="m-793.79-765.57c-0.34291 1.4998-0.68583 2.9997-1.0287 4.4995 9.1094 6.2486 18.911 11.755 26.696 19.707 4.1195 4.1686 7.306 9.835 6.678 15.874-0.20062 2.829-1.1586 5.5158-1.8626 8.2428 5.5644-1.8893 11.136-4.1326 15.563-8.1206 4.8299-4.0937 8.2573-9.5366 10.954-15.203-3.294-3.4698-6.9101-6.6677-11.148-8.9482-10.11-5.6034-21.276-8.9004-32.256-12.329-4.5042-1.3389-9.0296-2.6125-13.596-3.7224zm11.936 7.9507c12.433 3.5276 25.06 7.3716 35.975 14.491 1.5306 1.3776 5.3307 2.6418 2.9229 4.9205-3.3941 5.8232-8.234 10.935-14.327 13.942 0.92864-7.6721-2.7826-15.137-8.0909-20.468-4.8869-5.0124-10.702-8.9852-16.479-12.886z" color="#000000" color-rendering="auto" fill="#4c5263" image-rendering="auto" solid-color="#000000" style="isolation:auto;mix-blend-mode:normal;text-decoration-color:#000000;text-decoration-line:none;text-decoration-style:solid;text-indent:0;text-transform:none;white-space:normal"/></g><circle cx="-804.71" cy="-744.64" r="64.075" fill-opacity="0"/><path d="m-788.7-704.81c-21.748 3.0688-43.9 2.3079-65.724 0.63872 14.044 17.91 38.453 26.936 61 22.586 21.76-3.7402 40.833-19.676 48.517-40.35-12.922 9.166-28.189 14.729-43.792 17.126z" fill="#5294e2"/><g fill="#fff" fill-rule="evenodd"><path d="m-800.79-769.57c9.6385 19.855 9.6472 39.499 4 54 7.9518 0.0481 20.928 0.93977 35-6-11.566-26.41-39-48-39-48z"/><path d="m-825.79-803.57c-6.5014 26.532-25.218 59.182-37 80l10.415 2.4956c6.571 0.93871 14.663 1.8654 22.52 2.6816 14.41 1.4972 25.907 2.6463 28.066 2.8227-0.3084-4.0089-3.2741-47.6-4-56-7.2732-13.178-13.172-19.988-20-32z"/><path d="m-781.79-757.57c5.9813 4.008 11.68 7.6656 16 12 5.8501 5.8701 8.8398 13.779 8 22 7.8383-3.9384 13.02-10.506 16-16-5.2114-4.799-14.26-9.5468-24-13-5.3706-1.9041-11.025-3.6328-16-5z"/></g></g></g></svg>
