<svg xmlns="http://www.w3.org/2000/svg" width="147mm" height="145mm" viewBox="-105 0 727 720"><g fill-rule="evenodd" color="#000"><path fill="#5277c3" d="M165.23 247.8l122.2 211.66-56.16.53-32.62-56.9-32.86 56.5h-27.9l-14.3-24.7 46.8-80.5-33.3-57.9z" style="isolation:auto;mix-blend-mode:normal" overflow="visible" solid-color="#000000"/><path fill="#7ebae4" d="M209.34 160.6L87.12 372.26 58.6 323.9l32.92-56.7-65.4-.17-13.95-24.17 14.23-24.72 93.12.3 33.46-57.7zm9.36 169.2h244.43l-27.62 48.9-65.5-.18 32.6 56.74-13.9 24.16-28.5.03-46.3-80.78-66.7-.14zm142.27-92.75L238.77 25.38l56.16-.53 32.63 56.87 32.85-56.57h27.9l14.3 24.7-46.8 80.5 33.2 57.8z" style="isolation:auto;mix-blend-mode:normal" overflow="visible" solid-color="#000000"/><path fill="#5277c3" d="M165.23 247.8l122.2 211.66-56.16.53-32.62-56.9-32.86 56.5h-27.9l-14.3-24.7 46.8-80.5-33.3-57.9zm141.93-93.3H62.76l27.6-48.9 65.57.18-32.55-56.74 13.96-24.16 28.52-.03 46.3 80.8 66.7.12zm9.54 169.7l122.22-211.67 28.53 48.37-32.94 56.7 65.5.16 14 24.17-14.2 24.72-93.1-.3-33.43 57.7z" style="isolation:auto;mix-blend-mode:normal" overflow="visible" solid-color="#000000"/></g><g letter-spacing="0" word-spacing="0" font-family="Vegur"><path d="M79.83 502.26H57.1v103.1c0 14.55.6 37.56 1.47 63.18h-.87c-11.36-21.25-24.17-41.64-33.2-55.62l-71.35-110.66H-78V699.7h22.7V596.6c0-14.55-.58-41.92-1.45-67.26h.87c16.9 29.42 26.8 45.72 36.1 59.7L51.6 699.7h28.25zm43.24 197.44h24.47V558.76h-24.47zm12.24-161.62c8.5 0 15.2-6.7 15.2-15.14 0-8.45-6.7-15.15-15.1-15.15-8.4 0-15.1 6.7-15.1 15.1 0 8.4 6.7 15.1 15.2 15.1zM300 558.76h-28l-34.37 51.83h-.88l-33.2-51.9h-30.28l50.38 68.7v.9l-52.15 71.4h27.97l36.7-55.9h.87l36.7 55.9H304l-53.28-72.5v-.9z" style="-inkscape-font-specification:Vegur" font-size="395.1"/><path d="M394.56 504.34c-46.35 0-84.46 37.33-84.46 99.44 0 62.1 38.1 99.44 84.46 99.44 46.35 0 84.46-37.33 84.46-99.44 0-62.1-38.1-99.44-84.46-99.44zm0 19.38c34.5 0 60.77 28.5 60.77 80.06 0 51.57-26.27 80.06-60.77 80.06s-60.77-28.5-60.77-80.06c0-51.57 26.2-80.06 60.7-80.06z" style="-inkscape-font-specification:Vegur" font-size="367.49"/><path d="M488.6 554.8c0 27.36 14.26 42.17 47.3 55.56 25.37 10.26 35.63 19.38 35.63 38.18 0 22.8-18.52 34.2-43.03 34.2-12.82 0-27.35-2-43.3-7.42l-2.57 19.66c13.96 5.13 29.35 7.13 44.73 7.13 38.18 0 70.1-19.3 70.1-58.4 0-27-16.53-40.1-49.87-53.5-22.3-8.8-33.1-18.2-33.1-37.9 0-19.1 16.5-29.6 37.3-29.6 12.2 0 25.6 3.2 35 6.9l2.5-19.4c-10.85-4.5-24.2-6.8-39.06-6.8-35.04 0-61.83 20.26-61.83 51.6z" style="-inkscape-font-specification:Vegur" font-size="386.55"/></g></svg>
